<mxfile host="app.diagrams.net" agent="Mozilla/5.0 (Macintosh; Intel Mac OS X 10_15_7) AppleWebKit/537.36 (KHTML, like Gecko) Chrome/137.0.0.0 Safari/537.36 Edg/137.0.0.0" version="28.1.1">
  <diagram name="第 1 页" id="tDUK1P4B4LxdmMnWf7Kj">
    <mxGraphModel dx="994" dy="561" grid="1" gridSize="10" guides="1" tooltips="1" connect="1" arrows="1" fold="1" page="1" pageScale="1" pageWidth="1169" pageHeight="827" math="0" shadow="0">
      <root>
        <mxCell id="0" />
        <mxCell id="1" parent="0" />
        <mxCell id="_UH65gBfOaM5xMGqD6lp-2" value="" style="ellipse;whiteSpace=wrap;html=1;aspect=fixed;" vertex="1" parent="1">
          <mxGeometry x="350" y="205" width="155" height="155" as="geometry" />
        </mxCell>
        <mxCell id="_UH65gBfOaM5xMGqD6lp-3" style="edgeStyle=orthogonalEdgeStyle;rounded=0;orthogonalLoop=1;jettySize=auto;html=1;exitX=0.5;exitY=0;exitDx=0;exitDy=0;entryX=0.5;entryY=0;entryDx=0;entryDy=0;endArrow=baseDash;endFill=0;" edge="1" parent="1" source="_UH65gBfOaM5xMGqD6lp-1" target="_UH65gBfOaM5xMGqD6lp-2">
          <mxGeometry relative="1" as="geometry" />
        </mxCell>
        <mxCell id="_UH65gBfOaM5xMGqD6lp-4" style="edgeStyle=orthogonalEdgeStyle;rounded=0;orthogonalLoop=1;jettySize=auto;html=1;exitX=0.5;exitY=1;exitDx=0;exitDy=0;entryX=0.5;entryY=1;entryDx=0;entryDy=0;endArrow=none;endFill=0;" edge="1" parent="1" source="_UH65gBfOaM5xMGqD6lp-1" target="_UH65gBfOaM5xMGqD6lp-2">
          <mxGeometry relative="1" as="geometry" />
        </mxCell>
        <mxCell id="_UH65gBfOaM5xMGqD6lp-1" value="" style="ellipse;whiteSpace=wrap;html=1;aspect=fixed;" vertex="1" parent="1">
          <mxGeometry x="387.5" y="242.5" width="80" height="80" as="geometry" />
        </mxCell>
        <mxCell id="_UH65gBfOaM5xMGqD6lp-6" value="&lt;span style=&quot;caret-color: rgb(0, 122, 255); color: rgb(51, 51, 51); font-family: &amp;quot;Open Sans&amp;quot;, &amp;quot;Clear Sans&amp;quot;, &amp;quot;Helvetica Neue&amp;quot;, Helvetica, Arial, &amp;quot;Segoe UI Emoji&amp;quot;, sans-serif; orphans: 4; text-align: start; white-space-collapse: preserve; background-color: rgb(255, 255, 255);&quot;&gt;&lt;font style=&quot;font-size: 14px;&quot;&gt;ib_logfile0&lt;/font&gt;&lt;/span&gt;" style="text;html=1;align=center;verticalAlign=middle;whiteSpace=wrap;rounded=0;rotation=-45;" vertex="1" parent="1">
          <mxGeometry x="445" y="300" width="60" height="30" as="geometry" />
        </mxCell>
        <mxCell id="_UH65gBfOaM5xMGqD6lp-7" value="&lt;span style=&quot;caret-color: rgb(0, 122, 255); color: rgb(51, 51, 51); font-family: &amp;quot;Open Sans&amp;quot;, &amp;quot;Clear Sans&amp;quot;, &amp;quot;Helvetica Neue&amp;quot;, Helvetica, Arial, &amp;quot;Segoe UI Emoji&amp;quot;, sans-serif; orphans: 4; text-align: start; white-space-collapse: preserve; background-color: rgb(255, 255, 255);&quot;&gt;&lt;font style=&quot;font-size: 14px;&quot;&gt;ib_logfile1&lt;/font&gt;&lt;/span&gt;" style="text;html=1;align=center;verticalAlign=middle;whiteSpace=wrap;rounded=0;rotation=-45;" vertex="1" parent="1">
          <mxGeometry x="360" y="230" width="60" height="30" as="geometry" />
        </mxCell>
        <mxCell id="_UH65gBfOaM5xMGqD6lp-9" value="" style="endArrow=classic;html=1;rounded=0;entryX=0.348;entryY=0.006;entryDx=0;entryDy=0;entryPerimeter=0;" edge="1" parent="1">
          <mxGeometry width="50" height="50" relative="1" as="geometry">
            <mxPoint x="340" y="150" as="sourcePoint" />
            <mxPoint x="383.94000000000005" y="215.92999999999995" as="targetPoint" />
          </mxGeometry>
        </mxCell>
        <mxCell id="_UH65gBfOaM5xMGqD6lp-10" value="" style="endArrow=classic;html=1;rounded=0;entryX=0.935;entryY=0.219;entryDx=0;entryDy=0;entryPerimeter=0;" edge="1" parent="1" target="_UH65gBfOaM5xMGqD6lp-2">
          <mxGeometry width="50" height="50" relative="1" as="geometry">
            <mxPoint x="560" y="180" as="sourcePoint" />
            <mxPoint x="518.94" y="242.49999999999994" as="targetPoint" />
          </mxGeometry>
        </mxCell>
        <mxCell id="_UH65gBfOaM5xMGqD6lp-11" value="&lt;font style=&quot;font-size: 16px;&quot;&gt;write pos&lt;/font&gt;" style="text;html=1;align=center;verticalAlign=middle;whiteSpace=wrap;rounded=0;" vertex="1" parent="1">
          <mxGeometry x="277.5" y="120" width="110" height="30" as="geometry" />
        </mxCell>
        <mxCell id="_UH65gBfOaM5xMGqD6lp-12" value="&lt;font style=&quot;font-size: 16px;&quot;&gt;check point&lt;/font&gt;" style="text;html=1;align=center;verticalAlign=middle;whiteSpace=wrap;rounded=0;" vertex="1" parent="1">
          <mxGeometry x="505" y="150" width="110" height="30" as="geometry" />
        </mxCell>
      </root>
    </mxGraphModel>
  </diagram>
</mxfile>
